<svg width="500" height="60" viewBox="0 0 500 60" fill="none" xmlns="http://www.w3.org/2000/svg">
<path d="M0 0H500V60H0V0Z" fill="#D9D9D9"/>
<path d="M0 0H500V60H0V0Z" fill="#D9D9D9"/>
<path d="M0 0H500V60H0V0Z" fill="#D9D9D9"/>
<path d="M0 0H500V60H0V0Z" fill="#D9D9D9"/>
<path d="M232.771 22.68L237.331 33.84L241.867 22.68H245.011V39H242.251V32.76L242.611 27.048L238.555 37.08H235.987L232.027 27.024L232.387 32.76V39H229.627V22.68H232.771ZM258.382 39.12C257.566 39.12 256.91 38.952 256.414 38.616C255.934 38.28 255.582 37.864 255.358 37.368C254.67 38.008 254.006 38.48 253.366 38.784C252.726 39.088 252.038 39.24 251.302 39.24C250.23 39.24 249.438 38.896 248.926 38.208C248.43 37.52 248.182 36.648 248.182 35.592C248.182 34.888 248.31 34.272 248.566 33.744C248.838 33.2 249.278 32.776 249.886 32.472C250.494 32.168 251.326 32.016 252.382 32.016C252.798 32.016 253.23 32.048 253.678 32.112C254.126 32.16 254.574 32.224 255.022 32.304V30.888C255.022 30.216 254.838 29.76 254.47 29.52C254.102 29.264 253.606 29.136 252.982 29.136C252.502 29.136 251.974 29.2 251.398 29.328C250.838 29.456 250.23 29.656 249.574 29.928L248.782 27.576C250.398 26.92 251.862 26.592 253.174 26.592C254.358 26.592 255.27 26.792 255.91 27.192C256.566 27.592 257.022 28.12 257.278 28.776C257.534 29.432 257.662 30.136 257.662 30.888V35.568C257.662 35.808 257.726 36.04 257.854 36.264C257.998 36.472 258.27 36.576 258.67 36.576H258.934V39.12H258.382ZM250.846 35.544C250.846 35.976 250.942 36.32 251.134 36.576C251.326 36.816 251.606 36.936 251.974 36.936C252.342 36.936 252.758 36.84 253.222 36.648C253.686 36.456 254.286 36.008 255.022 35.304V34.272C254.19 34.128 253.374 34.056 252.574 34.056C251.95 34.056 251.502 34.184 251.23 34.44C250.974 34.696 250.846 35.064 250.846 35.544ZM264.162 24.528H261.258V21.672H264.162V24.528ZM264.09 39H261.33V26.832H264.09V39ZM267.82 35.568V21.24H270.58V35.568C270.58 35.808 270.636 36.04 270.748 36.264C270.876 36.472 271.116 36.576 271.468 36.576H271.852V39.12H271.18C270.268 39.12 269.572 38.944 269.092 38.592C268.612 38.24 268.276 37.792 268.084 37.248C267.908 36.704 267.82 36.144 267.82 35.568Z" fill="black"/>
<path d="M16.9499 13.8C14.7175 13.8 12.8999 15.6176 12.8999 17.85V18.2332L34.4999 33.6L56.0999 18.2332V17.85C56.0999 15.6176 54.2823 13.8 52.0499 13.8H16.9499ZM17.7163 15.6H51.28L34.4999 27.3L17.7163 15.6ZM12.8999 20.1246V42.15C12.8999 44.3824 14.7175 46.2 16.9499 46.2H52.0499C54.2823 46.2 56.0999 44.3824 56.0999 42.15V20.1246L50.6999 23.9672V44.4H18.2999V23.9672L12.8999 20.1246Z" fill="#131313"/>
</svg>
