<svg width="500" height="60" viewBox="0 0 500 60" fill="none" xmlns="http://www.w3.org/2000/svg">
<rect width="500" height="60" fill="#D9D9D9"/>
<rect x="12" y="13" width="34" height="34" rx="8" fill="#131313"/>
<path d="M23.3333 17.25C19.4219 17.25 16.25 20.4219 16.25 24.3333V35.6667C16.25 39.5781 19.4219 42.75 23.3333 42.75H34.6667C38.5781 42.75 41.75 39.5781 41.75 35.6667V24.3333C41.75 20.4219 38.5781 17.25 34.6667 17.25H23.3333ZM37.5 20.0833C38.282 20.0833 38.9167 20.718 38.9167 21.5C38.9167 22.282 38.282 22.9167 37.5 22.9167C36.718 22.9167 36.0833 22.282 36.0833 21.5C36.0833 20.718 36.718 20.0833 37.5 20.0833ZM29 22.9167C32.9114 22.9167 36.0833 26.0886 36.0833 30C36.0833 33.9114 32.9114 37.0833 29 37.0833C25.0886 37.0833 21.9167 33.9114 21.9167 30C21.9167 26.0886 25.0886 22.9167 29 22.9167ZM29 25.75C27.8728 25.75 26.7918 26.1978 25.9948 26.9948C25.1978 27.7918 24.75 28.8728 24.75 30C24.75 31.1272 25.1978 32.2082 25.9948 33.0052C26.7918 33.8022 27.8728 34.25 29 34.25C30.1272 34.25 31.2082 33.8022 32.0052 33.0052C32.8022 32.2082 33.25 31.1272 33.25 30C33.25 28.8728 32.8022 27.7918 32.0052 26.9948C31.2082 26.1978 30.1272 25.75 29 25.75Z" fill="#D9D9D9"/>
<path d="M206.445 39H203.565V22.68H206.445V39ZM216.539 29.16C216.139 29.16 215.683 29.256 215.171 29.448C214.659 29.64 214.051 30.016 213.347 30.576V39H210.587V26.832H213.203V28.464C213.955 27.808 214.667 27.336 215.339 27.048C216.011 26.744 216.691 26.592 217.379 26.592C218.547 26.592 219.435 26.968 220.043 27.72C220.651 28.456 220.955 29.496 220.955 30.84V39H218.195V31.176C218.195 29.832 217.643 29.16 216.539 29.16ZM228.011 36.84C228.603 36.84 229.091 36.744 229.475 36.552C229.859 36.344 230.051 36.04 230.051 35.64C230.051 35.288 229.923 35.016 229.667 34.824C229.427 34.616 228.987 34.432 228.347 34.272L226.979 33.912C225.923 33.64 225.139 33.184 224.627 32.544C224.131 31.904 223.883 31.144 223.883 30.264C223.883 29.224 224.243 28.352 224.963 27.648C225.683 26.944 226.795 26.592 228.299 26.592C228.907 26.592 229.547 26.664 230.219 26.808C230.891 26.952 231.595 27.184 232.331 27.504L231.539 29.856C230.867 29.536 230.259 29.312 229.715 29.184C229.171 29.056 228.691 28.992 228.275 28.992C227.139 28.992 226.571 29.376 226.571 30.144C226.571 30.448 226.667 30.688 226.859 30.864C227.067 31.04 227.443 31.2 227.987 31.344L229.355 31.704C230.523 32.008 231.371 32.472 231.899 33.096C232.443 33.72 232.715 34.504 232.715 35.448C232.715 36.568 232.331 37.48 231.563 38.184C230.811 38.888 229.619 39.24 227.987 39.24C226.595 39.24 225.131 38.92 223.595 38.28L224.339 36C225.091 36.304 225.771 36.52 226.379 36.648C226.987 36.776 227.531 36.84 228.011 36.84ZM242.868 38.592C242.452 38.784 241.972 38.936 241.428 39.048C240.884 39.176 240.332 39.24 239.772 39.24C238.844 39.24 238.1 39.048 237.54 38.664C236.98 38.28 236.572 37.744 236.316 37.056C236.076 36.368 235.956 35.584 235.956 34.704V29.232H233.988V26.832H235.956V23.664H238.716V26.832H242.508V29.232H238.716V34.704C238.716 35.44 238.852 35.952 239.124 36.24C239.412 36.512 239.82 36.648 240.348 36.648C240.604 36.648 240.876 36.624 241.164 36.576C241.468 36.512 241.804 36.408 242.172 36.264L242.868 38.592ZM254.303 39.12C253.487 39.12 252.831 38.952 252.335 38.616C251.855 38.28 251.503 37.864 251.279 37.368C250.591 38.008 249.927 38.48 249.287 38.784C248.647 39.088 247.959 39.24 247.223 39.24C246.151 39.24 245.359 38.896 244.847 38.208C244.351 37.52 244.103 36.648 244.103 35.592C244.103 34.888 244.231 34.272 244.487 33.744C244.759 33.2 245.199 32.776 245.807 32.472C246.415 32.168 247.247 32.016 248.303 32.016C248.719 32.016 249.151 32.048 249.599 32.112C250.047 32.16 250.495 32.224 250.943 32.304V30.888C250.943 30.216 250.759 29.76 250.391 29.52C250.023 29.264 249.527 29.136 248.903 29.136C248.423 29.136 247.895 29.2 247.319 29.328C246.759 29.456 246.151 29.656 245.495 29.928L244.703 27.576C246.319 26.92 247.783 26.592 249.095 26.592C250.279 26.592 251.191 26.792 251.831 27.192C252.487 27.592 252.943 28.12 253.199 28.776C253.455 29.432 253.583 30.136 253.583 30.888V35.568C253.583 35.808 253.647 36.04 253.775 36.264C253.919 36.472 254.191 36.576 254.591 36.576H254.855V39.12H254.303ZM246.767 35.544C246.767 35.976 246.863 36.32 247.055 36.576C247.247 36.816 247.527 36.936 247.895 36.936C248.263 36.936 248.679 36.84 249.143 36.648C249.607 36.456 250.207 36.008 250.943 35.304V34.272C250.111 34.128 249.295 34.056 248.495 34.056C247.871 34.056 247.423 34.184 247.151 34.44C246.895 34.696 246.767 35.064 246.767 35.544ZM267.355 40.224C267.355 41.52 266.843 42.528 265.819 43.248C264.811 43.984 263.403 44.352 261.595 44.352C260.747 44.352 259.851 44.256 258.907 44.064C257.963 43.872 257.091 43.552 256.291 43.104L257.083 40.92C257.851 41.304 258.611 41.576 259.363 41.736C260.115 41.912 260.851 42 261.571 42C262.579 42 263.347 41.864 263.875 41.592C264.403 41.32 264.667 40.96 264.667 40.512C264.667 39.824 264.259 39.48 263.443 39.48H260.563C259.779 39.48 259.147 39.352 258.667 39.096C258.187 38.84 257.835 38.512 257.611 38.112C257.387 37.696 257.275 37.264 257.275 36.816C257.275 36.352 257.371 35.92 257.563 35.52C257.771 35.104 258.051 34.72 258.403 34.368C257.827 34.016 257.363 33.544 257.011 32.952C256.675 32.36 256.507 31.648 256.507 30.816C256.507 29.872 256.707 29.088 257.107 28.464C257.507 27.84 258.051 27.376 258.739 27.072C259.443 26.752 260.219 26.592 261.067 26.592H261.475C261.795 26.592 262.107 26.616 262.411 26.664C262.715 26.696 263.003 26.752 263.275 26.832H267.619V29.184L265.219 28.8C265.459 29.056 265.643 29.376 265.771 29.76C265.915 30.128 265.987 30.584 265.987 31.128C265.987 31.944 265.779 32.648 265.363 33.24C264.963 33.816 264.419 34.264 263.731 34.584C263.059 34.888 262.307 35.04 261.475 35.04H261.067C260.747 35.04 260.443 35.016 260.155 34.968C259.979 35.16 259.851 35.36 259.771 35.568C259.691 35.76 259.651 35.944 259.651 36.12C259.651 36.68 260.011 36.96 260.731 36.96H263.659C264.763 36.96 265.651 37.248 266.323 37.824C267.011 38.384 267.355 39.184 267.355 40.224ZM261.475 32.784C261.971 32.784 262.403 32.616 262.771 32.28C263.155 31.944 263.347 31.456 263.347 30.816C263.347 30.176 263.155 29.688 262.771 29.352C262.403 29.016 261.971 28.848 261.475 28.848H261.067C260.555 28.848 260.107 29.016 259.723 29.352C259.355 29.688 259.171 30.176 259.171 30.816C259.171 31.456 259.355 31.944 259.723 32.28C260.107 32.616 260.555 32.784 261.067 32.784H261.475ZM276.865 29.352C276.113 29.352 275.393 29.472 274.705 29.712C274.033 29.936 273.385 30.304 272.761 30.816V39H270.001V26.832H272.617V28.704C273.433 27.936 274.161 27.392 274.801 27.072C275.441 26.752 276.129 26.592 276.865 26.592V29.352ZM288.499 39.12C287.683 39.12 287.027 38.952 286.531 38.616C286.051 38.28 285.699 37.864 285.475 37.368C284.787 38.008 284.123 38.48 283.483 38.784C282.843 39.088 282.155 39.24 281.419 39.24C280.347 39.24 279.555 38.896 279.043 38.208C278.547 37.52 278.299 36.648 278.299 35.592C278.299 34.888 278.427 34.272 278.683 33.744C278.955 33.2 279.395 32.776 280.003 32.472C280.611 32.168 281.443 32.016 282.499 32.016C282.915 32.016 283.347 32.048 283.795 32.112C284.243 32.16 284.691 32.224 285.139 32.304V30.888C285.139 30.216 284.955 29.76 284.587 29.52C284.219 29.264 283.723 29.136 283.099 29.136C282.619 29.136 282.091 29.2 281.515 29.328C280.955 29.456 280.347 29.656 279.691 29.928L278.899 27.576C280.515 26.92 281.979 26.592 283.291 26.592C284.475 26.592 285.387 26.792 286.027 27.192C286.683 27.592 287.139 28.12 287.395 28.776C287.651 29.432 287.779 30.136 287.779 30.888V35.568C287.779 35.808 287.843 36.04 287.971 36.264C288.115 36.472 288.387 36.576 288.787 36.576H289.051V39.12H288.499ZM280.963 35.544C280.963 35.976 281.059 36.32 281.251 36.576C281.443 36.816 281.723 36.936 282.091 36.936C282.459 36.936 282.875 36.84 283.339 36.648C283.803 36.456 284.403 36.008 285.139 35.304V34.272C284.307 34.128 283.491 34.056 282.691 34.056C282.067 34.056 281.619 34.184 281.347 34.44C281.091 34.696 280.963 35.064 280.963 35.544ZM294.207 30.576V39H291.447V26.832H294.063V28.44C294.815 27.784 295.511 27.312 296.151 27.024C296.791 26.736 297.447 26.592 298.119 26.592C299.607 26.592 300.623 27.248 301.167 28.56C301.967 27.856 302.711 27.352 303.399 27.048C304.087 26.744 304.783 26.592 305.487 26.592C306.607 26.592 307.463 26.968 308.055 27.72C308.647 28.456 308.943 29.496 308.943 30.84V39H306.183V31.176C306.183 29.832 305.671 29.16 304.647 29.16C304.247 29.16 303.807 29.256 303.327 29.448C302.847 29.64 302.263 30.016 301.575 30.576V39H298.815V31.176C298.815 29.832 298.303 29.16 297.279 29.16C296.879 29.16 296.439 29.256 295.959 29.448C295.479 29.64 294.895 30.016 294.207 30.576Z" fill="black"/>
</svg>
