<svg width="500" height="60" viewBox="0 0 500 60" fill="none" xmlns="http://www.w3.org/2000/svg">
<rect width="500" height="60" fill="#D9D9D9"/>
<path d="M40.3333 13H17.6667C14.5372 13 12 15.5372 12 18.6667V41.3333C12 44.4627 14.5372 47 17.6667 47H40.3333C43.4627 47 46 44.4627 46 41.3333V18.6667C46 15.5372 43.4627 13 40.3333 13ZM23.3333 40.625H19.7917V26.4583H23.3333V40.625ZM23.3539 23.6314C22.8956 24.0989 22.2977 24.3333 21.5625 24.3333C20.8357 24.3333 20.2415 24.0918 19.7782 23.6087C19.315 23.1256 19.0833 22.5328 19.0833 21.8315C19.0833 21.109 19.315 20.5197 19.7782 20.0621C20.2415 19.6038 20.8357 19.375 21.5625 19.375C22.2977 19.375 22.8956 19.6038 23.3539 20.0614C23.8122 20.519 24.0417 21.109 24.0417 21.8315C24.0417 22.5639 23.8122 23.1639 23.3539 23.6314ZM39.625 40.625H36.0833V32.7533C36.0833 30.5582 34.8182 29.2917 33.25 29.2917C32.4942 29.2917 31.6392 29.7507 31.1498 30.3322C30.6603 30.9138 30.4167 31.6511 30.4167 32.5458V40.625H26.875V26.4583H30.4167V28.6995H30.4719C31.5146 26.9747 33.0311 26.1183 35.0237 26.1127C37.8542 26.1042 39.625 28.2292 39.625 31.9508V40.625Z" fill="#131313"/>
<path d="M221.762 36.24V39H212.354V22.68H215.234V36.24H221.762ZM226.99 24.528H224.086V21.672H226.99V24.528ZM226.918 39H224.158V26.832H226.918V39ZM236.672 29.16C236.272 29.16 235.816 29.256 235.304 29.448C234.792 29.64 234.184 30.016 233.48 30.576V39H230.72V26.832H233.336V28.464C234.088 27.808 234.8 27.336 235.472 27.048C236.144 26.744 236.824 26.592 237.512 26.592C238.68 26.592 239.568 26.968 240.176 27.72C240.784 28.456 241.088 29.496 241.088 30.84V39H238.328V31.176C238.328 29.832 237.776 29.16 236.672 29.16ZM252.008 39L249.008 33.936C248.528 34.416 248.024 34.896 247.496 35.376V39H244.736V21.24H247.496V32.328C248.408 31.4 249.192 30.512 249.848 29.664C250.52 28.8 251.136 27.856 251.696 26.832H254.864C254.336 27.792 253.76 28.704 253.136 29.568C252.512 30.432 251.824 31.304 251.072 32.184L255.344 39H252.008ZM266.398 38.304C265.566 38.64 264.782 38.88 264.046 39.024C263.31 39.168 262.614 39.24 261.958 39.24C260.15 39.24 258.782 38.728 257.854 37.704C256.926 36.68 256.462 35.32 256.462 33.624V32.184C256.462 31.048 256.67 30.064 257.086 29.232C257.502 28.4 258.094 27.752 258.862 27.288C259.63 26.824 260.534 26.592 261.574 26.592C262.422 26.592 263.214 26.768 263.95 27.12C264.702 27.456 265.31 27.992 265.774 28.728C266.254 29.448 266.494 30.376 266.494 31.512C266.494 31.848 266.47 32.208 266.422 32.592C266.374 32.96 266.294 33.352 266.182 33.768H259.126C259.158 34.76 259.406 35.504 259.87 36C260.334 36.496 261.078 36.744 262.102 36.744C262.646 36.744 263.206 36.68 263.782 36.552C264.374 36.424 264.982 36.232 265.606 35.976L266.398 38.304ZM261.574 28.92C260.838 28.92 260.262 29.16 259.846 29.64C259.446 30.104 259.214 30.776 259.15 31.656H263.758C263.774 31.576 263.782 31.504 263.782 31.44C263.782 31.36 263.782 31.288 263.782 31.224C263.782 30.456 263.566 29.88 263.134 29.496C262.702 29.112 262.182 28.92 261.574 28.92ZM276.801 39V37.344C276.065 38.08 275.425 38.584 274.881 38.856C274.353 39.112 273.801 39.24 273.225 39.24C271.913 39.24 270.889 38.744 270.153 37.752C269.433 36.76 269.073 35.368 269.073 33.576V32.28C269.073 30.536 269.513 29.152 270.393 28.128C271.273 27.104 272.545 26.592 274.209 26.592C274.625 26.592 275.033 26.632 275.433 26.712C275.849 26.792 276.257 26.904 276.657 27.048V21.24H279.417V39H276.801ZM271.905 33.576C271.905 34.648 272.081 35.432 272.433 35.928C272.801 36.424 273.313 36.672 273.969 36.672C274.337 36.672 274.729 36.568 275.145 36.36C275.561 36.136 276.065 35.72 276.657 35.112V29.544C275.873 29.224 275.153 29.064 274.497 29.064C273.569 29.064 272.905 29.352 272.505 29.928C272.105 30.504 271.905 31.288 271.905 32.28V33.576ZM286.052 24.528H283.148V21.672H286.052V24.528ZM285.98 39H283.22V26.832H285.98V39ZM295.735 29.16C295.335 29.16 294.879 29.256 294.367 29.448C293.855 29.64 293.247 30.016 292.543 30.576V39H289.783V26.832H292.399V28.464C293.151 27.808 293.863 27.336 294.535 27.048C295.207 26.744 295.887 26.592 296.575 26.592C297.743 26.592 298.631 26.968 299.239 27.72C299.847 28.456 300.151 29.496 300.151 30.84V39H297.391V31.176C297.391 29.832 296.839 29.16 295.735 29.16Z" fill="black"/>
</svg>
