<svg width="500" height="60" viewBox="0 0 500 60" fill="none" xmlns="http://www.w3.org/2000/svg">
<path d="M0 0H500V60H0V0Z" fill="#D9D9D9"/>
<path d="M0 0H500V60H0V0Z" fill="#D9D9D9"/>
<path d="M0 0H500V60H0V0Z" fill="#D9D9D9"/>
<path d="M0 0H500V60H0V0Z" fill="#D9D9D9"/>
<path d="M211.736 22.68L216.296 33.84L220.832 22.68H223.976V39H221.216V32.76L221.576 27.048L217.52 37.08H214.952L210.992 27.024L211.352 32.76V39H208.592V22.68H211.736ZM237.37 38.304C236.538 38.64 235.754 38.88 235.018 39.024C234.282 39.168 233.586 39.24 232.93 39.24C231.122 39.24 229.754 38.728 228.826 37.704C227.898 36.68 227.434 35.32 227.434 33.624V32.184C227.434 31.048 227.642 30.064 228.058 29.232C228.474 28.4 229.066 27.752 229.834 27.288C230.602 26.824 231.506 26.592 232.546 26.592C233.394 26.592 234.186 26.768 234.922 27.12C235.674 27.456 236.282 27.992 236.746 28.728C237.226 29.448 237.466 30.376 237.466 31.512C237.466 31.848 237.442 32.208 237.394 32.592C237.346 32.96 237.266 33.352 237.154 33.768H230.098C230.13 34.76 230.378 35.504 230.842 36C231.306 36.496 232.05 36.744 233.074 36.744C233.618 36.744 234.178 36.68 234.754 36.552C235.346 36.424 235.954 36.232 236.578 35.976L237.37 38.304ZM232.546 28.92C231.81 28.92 231.234 29.16 230.818 29.64C230.418 30.104 230.186 30.776 230.122 31.656H234.73C234.746 31.576 234.754 31.504 234.754 31.44C234.754 31.36 234.754 31.288 234.754 31.224C234.754 30.456 234.538 29.88 234.106 29.496C233.674 29.112 233.154 28.92 232.546 28.92ZM247.774 39V37.344C247.038 38.08 246.398 38.584 245.854 38.856C245.326 39.112 244.774 39.24 244.198 39.24C242.886 39.24 241.862 38.744 241.126 37.752C240.406 36.76 240.046 35.368 240.046 33.576V32.28C240.046 30.536 240.486 29.152 241.366 28.128C242.246 27.104 243.518 26.592 245.182 26.592C245.598 26.592 246.006 26.632 246.406 26.712C246.822 26.792 247.23 26.904 247.63 27.048V21.24H250.39V39H247.774ZM242.878 33.576C242.878 34.648 243.054 35.432 243.406 35.928C243.774 36.424 244.286 36.672 244.942 36.672C245.31 36.672 245.702 36.568 246.118 36.36C246.534 36.136 247.038 35.72 247.63 35.112V29.544C246.846 29.224 246.126 29.064 245.47 29.064C244.542 29.064 243.878 29.352 243.478 29.928C243.078 30.504 242.878 31.288 242.878 32.28V33.576ZM257.025 24.528H254.121V21.672H257.025V24.528ZM256.953 39H254.193V26.832H256.953V39ZM268.003 39V37.392C267.267 38.032 266.579 38.504 265.939 38.808C265.299 39.096 264.651 39.24 263.995 39.24C262.907 39.24 262.067 38.872 261.475 38.136C260.883 37.384 260.587 36.336 260.587 34.992V26.832H263.347V34.656C263.347 36 263.843 36.672 264.835 36.672C265.235 36.672 265.667 36.576 266.131 36.384C266.611 36.192 267.187 35.824 267.859 35.28V26.832H270.619V39H268.003ZM277.179 30.576V39H274.419V26.832H277.035V28.44C277.787 27.784 278.483 27.312 279.123 27.024C279.763 26.736 280.419 26.592 281.091 26.592C282.579 26.592 283.595 27.248 284.139 28.56C284.939 27.856 285.683 27.352 286.371 27.048C287.059 26.744 287.755 26.592 288.459 26.592C289.579 26.592 290.435 26.968 291.027 27.72C291.619 28.456 291.915 29.496 291.915 30.84V39H289.155V31.176C289.155 29.832 288.643 29.16 287.619 29.16C287.219 29.16 286.779 29.256 286.299 29.448C285.819 29.64 285.235 30.016 284.547 30.576V39H281.787V31.176C281.787 29.832 281.275 29.16 280.251 29.16C279.851 29.16 279.411 29.256 278.931 29.448C278.451 29.64 277.867 30.016 277.179 30.576Z" fill="black"/>
<path d="M44.5625 13.125H16.4375C14.8843 13.125 13.625 14.3843 13.625 15.9375V44.0625C13.625 45.6157 14.8843 46.875 16.4375 46.875H44.5625C46.1157 46.875 47.375 45.6157 47.375 44.0625V15.9375C47.375 14.3843 46.1157 13.125 44.5625 13.125ZM41.0469 21.2109L39.7665 22.7557C39.6856 22.8359 39.6406 22.9441 39.6406 23.0566V36.8555C39.6406 36.968 39.6856 37.0763 39.7665 37.1564L41.0469 38.8214V39.1406H34.0156V38.8214L35.9991 37.1564C36.08 37.0763 36.125 36.968 36.125 36.8555V24.2899L30.3931 39.1406H29.3075L23.4688 24.6387V35.9646C23.4688 36.1193 23.5222 36.2691 23.6199 36.39L25.5781 38.8214V39.1406H19.9531V38.8214L21.9099 36.4041C22.0084 36.2831 22.0625 36.132 22.0625 35.9766V23.2416C22.0625 23.1417 22.0273 23.0454 21.9627 22.9688L20.6562 21.2109V20.8594H25.6463L31.007 34.3474L36.1264 20.8594H41.0469V21.2109Z" fill="#131313"/>
</svg>
