<svg width="500" height="60" viewBox="0 0 500 60" fill="none" xmlns="http://www.w3.org/2000/svg">
<path d="M0 0H500V60H0V0Z" fill="#D9D9D9"/>
<path d="M0 0H500V60H0V0Z" fill="#D9D9D9"/>
<path d="M0 0H500V60H0V0Z" fill="#D9D9D9"/>
<path d="M0 0H500V60H0V0Z" fill="#D9D9D9"/>
<path d="M211.429 25.44V22.68H223.429V25.44H218.869V39H215.989V25.44H211.429ZM240.79 26.832L237.67 39H234.67L232.654 29.856L230.518 39H227.518L224.398 26.832H227.23L228.406 31.656L229.222 36.048L231.286 26.832H234.07L236.206 36.144L236.974 31.68L238.126 26.832H240.79ZM246.173 24.528H243.269V21.672H246.173V24.528ZM246.101 39H243.341V26.832H246.101V39ZM257.224 38.592C256.808 38.784 256.328 38.936 255.784 39.048C255.24 39.176 254.688 39.24 254.128 39.24C253.2 39.24 252.456 39.048 251.896 38.664C251.336 38.28 250.928 37.744 250.672 37.056C250.432 36.368 250.312 35.584 250.312 34.704V29.232H248.344V26.832H250.312V23.664H253.072V26.832H256.864V29.232H253.072V34.704C253.072 35.44 253.208 35.952 253.48 36.24C253.768 36.512 254.176 36.648 254.704 36.648C254.96 36.648 255.232 36.624 255.52 36.576C255.824 36.512 256.16 36.408 256.528 36.264L257.224 38.592ZM266.763 38.592C266.347 38.784 265.867 38.936 265.323 39.048C264.779 39.176 264.227 39.24 263.667 39.24C262.739 39.24 261.995 39.048 261.435 38.664C260.875 38.28 260.467 37.744 260.211 37.056C259.971 36.368 259.851 35.584 259.851 34.704V29.232H257.883V26.832H259.851V23.664H262.611V26.832H266.403V29.232H262.611V34.704C262.611 35.44 262.747 35.952 263.019 36.24C263.307 36.512 263.715 36.648 264.243 36.648C264.499 36.648 264.771 36.624 265.059 36.576C265.363 36.512 265.699 36.408 266.067 36.264L266.763 38.592ZM278.222 38.304C277.39 38.64 276.606 38.88 275.87 39.024C275.134 39.168 274.438 39.24 273.782 39.24C271.974 39.24 270.606 38.728 269.678 37.704C268.75 36.68 268.286 35.32 268.286 33.624V32.184C268.286 31.048 268.494 30.064 268.91 29.232C269.326 28.4 269.918 27.752 270.686 27.288C271.454 26.824 272.358 26.592 273.398 26.592C274.246 26.592 275.038 26.768 275.774 27.12C276.526 27.456 277.134 27.992 277.598 28.728C278.078 29.448 278.318 30.376 278.318 31.512C278.318 31.848 278.294 32.208 278.246 32.592C278.198 32.96 278.118 33.352 278.006 33.768H270.95C270.982 34.76 271.23 35.504 271.694 36C272.158 36.496 272.902 36.744 273.926 36.744C274.47 36.744 275.03 36.68 275.606 36.552C276.198 36.424 276.806 36.232 277.43 35.976L278.222 38.304ZM273.398 28.92C272.662 28.92 272.086 29.16 271.67 29.64C271.27 30.104 271.038 30.776 270.974 31.656H275.582C275.598 31.576 275.606 31.504 275.606 31.44C275.606 31.36 275.606 31.288 275.606 31.224C275.606 30.456 275.39 29.88 274.958 29.496C274.526 29.112 274.006 28.92 273.398 28.92ZM288.362 29.352C287.61 29.352 286.89 29.472 286.202 29.712C285.53 29.936 284.882 30.304 284.258 30.816V39H281.498V26.832H284.114V28.704C284.93 27.936 285.658 27.392 286.298 27.072C286.938 26.752 287.626 26.592 288.362 26.592V29.352Z" fill="black"/>
<path d="M20.2579 13.125C19.0447 13.125 18.3337 14.4914 19.0274 15.4871L30.2554 31.5344L18.9835 44.7107C18.2541 45.5619 18.8583 46.875 19.9796 46.875H21.2247C21.774 46.875 22.2966 46.6339 22.6529 46.2158L32.4747 34.7095L39.8685 45.2747C40.5716 46.2759 41.7185 46.875 42.941 46.875H49.1922C50.4053 46.875 51.1164 45.5104 50.4227 44.5166L38.5757 27.561L49.313 14.9817C49.9355 14.2504 49.4161 13.125 48.4561 13.125H46.8704C46.3229 13.125 45.8021 13.3643 45.4459 13.7805L36.3675 24.3933L29.6146 14.729C28.9133 13.724 27.7683 13.125 26.5421 13.125H20.2579Z" fill="#131313"/>
</svg>
