<svg width="500" height="60" viewBox="0 0 500 60" fill="none" xmlns="http://www.w3.org/2000/svg">
<path d="M0 0H500V60H0V0Z" fill="#D9D9D9"/>
<path d="M0 0H500V60H0V0Z" fill="#D9D9D9"/>
<path d="M0 0H500V60H0V0Z" fill="#D9D9D9"/>
<path d="M0 0H500V60H0V0Z" fill="#D9D9D9"/>
<path d="M219.121 22.68L214.129 32.448V39H211.249V32.496L206.209 22.68H209.281L212.809 29.64L216.145 22.68H219.121ZM229.852 32.184V33.624C229.852 35.32 229.388 36.68 228.46 37.704C227.532 38.728 226.22 39.24 224.524 39.24C222.828 39.24 221.516 38.728 220.588 37.704C219.66 36.68 219.196 35.32 219.196 33.624V32.184C219.196 30.488 219.652 29.136 220.564 28.128C221.492 27.104 222.812 26.592 224.524 26.592C226.236 26.592 227.548 27.104 228.46 28.128C229.388 29.136 229.852 30.488 229.852 32.184ZM227.02 32.184C227.02 31.208 226.804 30.448 226.372 29.904C225.94 29.344 225.324 29.064 224.524 29.064C223.724 29.064 223.108 29.344 222.676 29.904C222.244 30.448 222.028 31.208 222.028 32.184V33.624C222.028 34.6 222.244 35.368 222.676 35.928C223.108 36.488 223.724 36.768 224.524 36.768C225.324 36.768 225.94 36.488 226.372 35.928C226.804 35.368 227.02 34.6 227.02 33.624V32.184ZM240.195 39V37.392C239.459 38.032 238.771 38.504 238.131 38.808C237.491 39.096 236.843 39.24 236.187 39.24C235.099 39.24 234.259 38.872 233.667 38.136C233.075 37.384 232.779 36.336 232.779 34.992V26.832H235.539V34.656C235.539 36 236.035 36.672 237.027 36.672C237.427 36.672 237.859 36.576 238.323 36.384C238.803 36.192 239.379 35.824 240.051 35.28V26.832H242.811V39H240.195ZM253.931 38.592C253.515 38.784 253.035 38.936 252.491 39.048C251.947 39.176 251.395 39.24 250.835 39.24C249.907 39.24 249.163 39.048 248.603 38.664C248.043 38.28 247.635 37.744 247.379 37.056C247.139 36.368 247.019 35.584 247.019 34.704V29.232H245.051V26.832H247.019V23.664H249.779V26.832H253.571V29.232H249.779V34.704C249.779 35.44 249.915 35.952 250.187 36.24C250.475 36.512 250.883 36.648 251.411 36.648C251.667 36.648 251.939 36.624 252.227 36.576C252.531 36.512 252.867 36.408 253.235 36.264L253.931 38.592ZM263.398 39V37.392C262.662 38.032 261.974 38.504 261.334 38.808C260.694 39.096 260.046 39.24 259.39 39.24C258.302 39.24 257.462 38.872 256.87 38.136C256.278 37.384 255.982 36.336 255.982 34.992V26.832H258.742V34.656C258.742 36 259.238 36.672 260.23 36.672C260.63 36.672 261.062 36.576 261.526 36.384C262.006 36.192 262.582 35.824 263.254 35.28V26.832H266.014V39H263.398ZM280.062 33.552C280.062 35.296 279.63 36.68 278.766 37.704C277.902 38.728 276.638 39.24 274.974 39.24C273.246 39.24 271.494 38.76 269.718 37.8V21.24H272.478V28.44C273.214 27.704 273.846 27.216 274.374 26.976C274.902 26.72 275.446 26.592 276.006 26.592C277.286 26.592 278.278 27.088 278.982 28.08C279.702 29.072 280.062 30.464 280.062 32.256V33.552ZM275.262 29.16C274.878 29.16 274.47 29.272 274.038 29.496C273.622 29.72 273.102 30.16 272.478 30.816V36.264C272.91 36.44 273.302 36.568 273.654 36.648C274.022 36.728 274.382 36.768 274.734 36.768C275.63 36.768 276.27 36.48 276.654 35.904C277.038 35.328 277.23 34.544 277.23 33.552V32.256C277.23 31.184 277.054 30.4 276.702 29.904C276.366 29.408 275.886 29.16 275.262 29.16ZM292.484 38.304C291.652 38.64 290.868 38.88 290.132 39.024C289.396 39.168 288.7 39.24 288.044 39.24C286.236 39.24 284.868 38.728 283.94 37.704C283.012 36.68 282.548 35.32 282.548 33.624V32.184C282.548 31.048 282.756 30.064 283.172 29.232C283.588 28.4 284.18 27.752 284.948 27.288C285.716 26.824 286.62 26.592 287.66 26.592C288.508 26.592 289.3 26.768 290.036 27.12C290.788 27.456 291.396 27.992 291.86 28.728C292.34 29.448 292.58 30.376 292.58 31.512C292.58 31.848 292.556 32.208 292.508 32.592C292.46 32.96 292.38 33.352 292.268 33.768H285.212C285.244 34.76 285.492 35.504 285.956 36C286.42 36.496 287.164 36.744 288.188 36.744C288.732 36.744 289.292 36.68 289.868 36.552C290.46 36.424 291.068 36.232 291.692 35.976L292.484 38.304ZM287.66 28.92C286.924 28.92 286.348 29.16 285.932 29.64C285.532 30.104 285.3 30.776 285.236 31.656H289.844C289.86 31.576 289.868 31.504 289.868 31.44C289.868 31.36 289.868 31.288 289.868 31.224C289.868 30.456 289.652 29.88 289.22 29.496C288.788 29.112 288.268 28.92 287.66 28.92Z" fill="black"/>
<path d="M34.3663 15.4688C28.4107 15.4688 22.8772 15.8931 19.7197 16.5527C19.713 16.5545 19.7063 16.5563 19.6996 16.5582C17.3208 17.0913 15.0808 18.7952 14.6093 21.4636C14.6086 21.4673 14.608 21.4709 14.6074 21.4746C14.2452 23.6252 13.875 26.4288 13.875 30.4688C13.875 34.5011 14.2464 37.2303 14.7045 39.494C15.1876 42.0837 17.3758 43.8392 19.7911 44.3793C19.8027 44.3825 19.8143 44.3855 19.8259 44.3884C23.1213 45.0378 28.4986 45.4688 34.4542 45.4688C40.4099 45.4688 45.79 45.0378 49.0862 44.3884C49.0978 44.3855 49.1094 44.3825 49.121 44.3793C51.4998 43.8462 53.7398 42.1423 54.2113 39.4739C54.2126 39.4672 54.2138 39.4605 54.215 39.4537C54.5717 37.2592 55.0339 34.4584 55.125 30.412C55.1251 30.4016 55.1251 30.3912 55.125 30.3809C55.125 26.3322 54.6616 23.5113 54.2095 21.2769C53.7302 18.6816 51.5394 16.9214 49.121 16.3806C49.084 16.3724 49.0468 16.3657 49.0093 16.3605C45.7935 15.9084 40.3229 15.4688 34.3663 15.4688ZM30.8965 23.4393C31.2437 23.4322 31.6027 23.5143 31.9402 23.7048L40.006 28.2623C41.3663 29.0311 41.3663 30.9708 40.006 31.7395L31.9402 36.297C30.5911 37.0582 28.9098 36.0941 28.9098 34.5575V25.4425C28.9098 24.2901 29.8547 23.4609 30.8965 23.4393Z" fill="#131313"/>
</svg>
